/* XPM */
static char *af7ecd1428524e19e8bbce0a0f39f4fdoLeQAyIfTrd2TkX5[] = {
/* columns rows colors chars-per-pixel */
"64 64 103 2 ",
"   c black",
".  c #000C00",
"X  c #001100",
"o  c #001700",
"O  c #012000",
"+  c #012600",
"@  c #012800",
"#  c #012D00",
"$  c #013100",
"%  c #013700",
"&  c #013900",
"*  c #123811",
"=  c #123D11",
"-  c gray17",
";  c #2D2F2D",
":  c #014000",
">  c #035000",
",  c #015600",
"<  c #015800",
"1  c #036100",
"2  c #006300",
"3  c #036600",
"4  c #036A00",
"5  c #046800",
"6  c #036C00",
"7  c #037200",
"8  c #037400",
"9  c #047600",
"0  c #047800",
"q  c #047B00",
"w  c #126E11",
"e  c #315D30",
"r  c #30702F",
"t  c #396A39",
"y  c #357033",
"u  c #515151",
"i  c #5B5B5B",
"p  c #666A66",
"a  c #727872",
"s  c #038200",
"d  c #048100",
"f  c #048600",
"g  c #048700",
"h  c #038900",
"j  c #048B00",
"k  c #049400",
"l  c #039B00",
"z  c #049B00",
"x  c #049F00",
"c  c #149711",
"v  c #139C11",
"b  c #03A000",
"n  c #03A300",
"m  c #03AD00",
"M  c #03B200",
"N  c #03BF00",
"B  c #38A335",
"V  c #03C200",
"C  c #03C500",
"Z  c #01D900",
"A  c #01DE00",
"S  c #14CC11",
"D  c #13D711",
"F  c #01E700",
"G  c #01E900",
"H  c #31C12F",
"J  c #2BD829",
"K  c #35D533",
"L  c #37E135",
"P  c #42E93F",
"I  c #42F13F",
"U  c #70E83D",
"Y  c #51B24F",
"T  c #61BE5A",
"R  c #70DF41",
"E  c #6ECE51",
"W  c #4AE547",
"Q  c #50F54F",
"!  c #60F95A",
"~  c #6DF959",
"^  c #63F160",
"/  c #70F663",
"(  c #78EE75",
")  c #7CE979",
"_  c #76F873",
"`  c #78F875",
"'  c #8CE986",
"]  c #94E981",
"[  c #8CFB89",
"{  c #A3F0A0",
"}  c #A3FBA0",
"|  c #B7FCB2",
" . c #E9F88D",
".. c #E8F794",
"X. c #DFF4AF",
"o. c #C4F2BA",
"O. c #C4FCBA",
"+. c #DFFCBC",
"@. c #EDFCA9",
"#. c #E9FCAF",
"$. c #E9FCBC",
"%. c #D4FCC3",
"&. c #E8FBC9",
/* pixels */
"                                                                                                                                ",
"                                                                                                                                ",
"                                                                                                                                ",
"                                                                                                                                ",
"                                                                                                                                ",
"                                                                                                                                ",
"                                                                                                                                ",
"                                                                                                                                ",
"                                                                                                                                ",
"                                                                                                                                ",
"                                                                                                                                ",
"                                                                                                                                ",
"                                                                                                                                ",
"                                                                                                                                ",
"                                                                                                                                ",
"                                                                                                                                ",
"                                                                                                                                ",
"                                                                                                                                ",
"                                                                                                                                ",
"                                                                                                                                ",
"                                                                                                                                ",
"                                                                                                                                ",
"                                                                                                                                ",
"                                                                                                                                ",
"                                                                                                                                ",
"                                                                                                                                ",
"                                                                                                                                ",
"                                                                                                                                ",
"                                                                                                                                ",
"                                                                                                                                ",
"                                                                                                                                ",
"                                                                                                                                ",
"                                                                                                                                ",
"                                                                                                                                ",
"                                                                                                                                ",
"                                                                                                                                ",
"                                                                                                                                ",
"                                                                                                                                ",
"                                                                                                                                ",
"                                                                                                                                ",
"                                                                                                                                ",
"                                                                                                                                ",
"                                                                                                                                ",
"                                                                                                                                ",
"                                                                                                                                ",
"                                                                                                                                ",
"                                                                                                                                ",
"                                                                                                                                ",
"                                                                                                                                ",
"                                                                                                                                ",
"                                                                                                                                ",
"                                                                                                                                ",
"                                                                                                                                ",
"                                              o : , 2 w r y y y y y r w 2 , : o                                                 ",
"                                          X $ < v H K W ) ' ] ] ] ' ) W K H v < $ X                                             ",
"                                          # 6 x J ^ _ [ | %.#.@.$.%.| [ _ ^ J l 6 #                                             ",
"                                          + 1 k S W ( { | #... .&.+.O.} ` I D n 3 +                                             ",
"                                          . & < h c B Y T E R U / ~ ! Q L S m 7 % .                                             ",
"                                            . # > 4 q j k n C Z F G F A N x 7 & .                                               ",
"                                              . # > 1 0 f k x M V V M n h 4 & .                                                 ",
"                                                . o % , 1 6 9 d h s 8 3 & # .                                                   ",
"                                                    . O # * e t e = # + .                                                       ",
"                                                          ; p a p ;                                                             ",
"                                                          - i u i -                                                             "
};
